<svg width="33" height="33" viewBox="0 0 33 33" fill="none" xmlns="http://www.w3.org/2000/svg">
<path d="M16.5 33C25.6127 33 33 25.6127 33 16.5C33 7.3873 25.6127 0 16.5 0C7.3873 0 0 7.3873 0 16.5C0 25.6127 7.3873 33 16.5 33Z" fill="url(#paint0_linear_103781_10957)" fill-opacity="0.15"/>
<path d="M29.3947 15.4085C29.5091 13.0312 27.8487 11.4541 25.9748 10.3713L24.7568 17.5269C25.6001 17.4798 26.0123 17.8 26.1622 17.9506C26.3496 18.1389 26.8181 18.7038 26.2559 19.5983C27.4271 19.41 29.2564 18.2801 29.3947 15.4085Z" fill="url(#paint1_linear_103781_10957)"/>
<path fill-rule="evenodd" clip-rule="evenodd" d="M13.4167 7.07784L11.9644 5.61846C14.1506 5.35173 19.919 5.6938 25.5032 9.19628C25.5968 9.57289 25.5032 10.1378 25.5032 10.1378L25.9716 10.3732C26.3776 10.9538 27.0678 12.6046 26.5806 14.563C26.0934 16.5214 25.2533 17.3562 24.8941 17.5288C24.1446 17.5288 22.8704 17.962 22.4581 19.8827C22.0458 21.8034 21.2557 22.2208 20.9122 22.1894L12.6671 22.2836L7.23291 19.0824L6.43652 12.4446L7.98247 10.3732L10.7464 8.11352L12.714 7.31322L13.4167 7.07784ZM23.1545 9.81983C22.7909 10.1986 22.451 10.3802 22.3539 10.4295C20.2309 9.97792 19.466 8.87959 19.466 8.87959C21.4685 8.86721 23.276 9.34355 24.5983 10.1493C24.5983 10.1493 23.8825 9.91728 23.1545 9.81983Z" fill="url(#paint2_linear_103781_10957)"/>
<path fill-rule="evenodd" clip-rule="evenodd" d="M22.3861 19.883C20.9307 20.5973 19.2052 21.0108 17.3551 21.0108C12.1547 21.0108 7.93892 17.7438 7.93892 13.7139C7.93892 10.737 10.2394 8.17639 13.5378 7.0415C7.26469 7.40291 2.22363 12.4424 2.22363 18.6607C2.22363 25.8372 8.62068 31.7669 16.5119 31.7669C22.4044 31.7669 27.3094 28.3505 29.8741 23.7796C26.3452 24.5732 22.1677 23.0644 22.3861 19.883Z" fill="url(#paint3_linear_103781_10957)"/>
<defs>
<linearGradient id="paint0_linear_103781_10957" x1="16.5" y1="11.5471" x2="16.5" y2="33.4338" gradientUnits="userSpaceOnUse">
<stop stop-color="#01E8F8"/>
<stop offset="1" stop-color="#01E8F8" stop-opacity="0"/>
</linearGradient>
<linearGradient id="paint1_linear_103781_10957" x1="27.0984" y1="12.4316" x2="27.8331" y2="21.1824" gradientUnits="userSpaceOnUse">
<stop stop-color="#01E8F7"/>
<stop offset="1" stop-color="#00C2FF"/>
</linearGradient>
<linearGradient id="paint2_linear_103781_10957" x1="13.0085" y1="7.34251" x2="21.5086" y2="20.8331" gradientUnits="userSpaceOnUse">
<stop stop-color="#01E8F7"/>
<stop offset="1" stop-color="#00B3EC"/>
</linearGradient>
<linearGradient id="paint3_linear_103781_10957" x1="16.1671" y1="14.0349" x2="16.926" y2="35.8006" gradientUnits="userSpaceOnUse">
<stop stop-color="#01E8F7"/>
<stop offset="1" stop-color="#00C2FF"/>
</linearGradient>
</defs>
</svg>
