<svg width="17" height="15" viewBox="0 0 17 15" fill="none" xmlns="http://www.w3.org/2000/svg">
<g clip-path="url(#clip0_99760_11431)">
<path fill-rule="evenodd" clip-rule="evenodd" d="M4.89453 12.9862L7.1152 13.5343V12.8176L7.29648 12.6489H8.56544V13.4922V14.0825H7.20584L5.52901 13.4079L4.89453 12.9862Z" fill="#CDBDB2"/>
<path fill-rule="evenodd" clip-rule="evenodd" d="M12.1455 12.9862L9.97015 13.5343V12.8176L9.78887 12.6489H8.51991V13.4922V14.0825H9.87951L11.5563 13.4079L12.1455 12.9862Z" fill="#CDBDB2"/>
<path fill-rule="evenodd" clip-rule="evenodd" d="M7.29651 11.4257L7.11523 12.817L7.34183 12.6484H9.69847L9.97039 12.817L9.78911 11.4257L9.42655 11.2148L7.61375 11.257L7.29651 11.4257Z" fill="#393939"/>
<path fill-rule="evenodd" clip-rule="evenodd" d="M6.07275 2.02393L7.16043 4.38504L7.65895 11.2576H9.42643L9.97027 4.38504L10.9673 2.02393H6.07275Z" fill="#F89C35"/>
<path fill-rule="evenodd" clip-rule="evenodd" d="M1.31486 7.20971L0.0458984 10.6249L3.21829 10.4562H5.25769V8.98054L5.16705 5.94482L4.71385 6.28213L1.31486 7.20971Z" fill="#F89D35"/>
<path fill-rule="evenodd" clip-rule="evenodd" d="M3.71631 7.58887L7.43254 7.67319L7.02466 9.44402L5.25719 9.0224L3.71631 7.58887Z" fill="#D87C30"/>
<path fill-rule="evenodd" clip-rule="evenodd" d="M3.71631 7.63135L5.25719 8.98055V10.3298L3.71631 7.63135Z" fill="#EA8D3A"/>
<path fill-rule="evenodd" clip-rule="evenodd" d="M5.25732 9.02246L7.07012 9.44409L7.65928 11.2571L7.2514 11.4679L5.25732 10.3717V9.02246Z" fill="#F89D35"/>
<path fill-rule="evenodd" clip-rule="evenodd" d="M5.25709 10.3716L4.89453 12.9857L7.29649 11.4257L5.25709 10.3716Z" fill="#EB8F35"/>
<path fill-rule="evenodd" clip-rule="evenodd" d="M7.4322 7.67334L7.6588 11.2572L6.979 9.42309L7.4322 7.67334Z" fill="#EA8E3A"/>
<path fill-rule="evenodd" clip-rule="evenodd" d="M3.17236 10.4137L5.25708 10.3716L4.89452 12.9857L3.17236 10.4137Z" fill="#D87C30"/>
<path fill-rule="evenodd" clip-rule="evenodd" d="M1.04294 14.1244L4.89513 12.986L3.17297 10.4141L0.0458984 10.6249L1.04294 14.1244Z" fill="#EB8F35"/>
<path fill-rule="evenodd" clip-rule="evenodd" d="M7.16062 4.38477L5.21187 5.90262L3.71631 7.58913L7.43254 7.71562L7.16062 4.38477Z" fill="#E8821E"/>
<path fill-rule="evenodd" clip-rule="evenodd" d="M4.89453 12.9858L7.29649 11.4258L7.11521 12.775V13.5339L5.48369 13.2388L4.89453 12.9858Z" fill="#DFCEC3"/>
<path fill-rule="evenodd" clip-rule="evenodd" d="M12.1455 12.9858L9.78887 11.4258L9.97015 12.775V13.5339L11.6017 13.2388L12.1455 12.9858Z" fill="#DFCEC3"/>
<path fill-rule="evenodd" clip-rule="evenodd" d="M6.43556 8.43262L6.93408 9.40236L5.16661 8.98073L6.43556 8.43262Z" fill="#393939"/>
<path fill-rule="evenodd" clip-rule="evenodd" d="M0.99707 0.0419922L7.16058 4.38475L6.11822 2.02364L0.99707 0.0419922Z" fill="#E88F35"/>
<path fill-rule="evenodd" clip-rule="evenodd" d="M0.997399 0.0419922L0.181641 2.36094L0.63484 4.8907L0.3176 5.05935L0.770799 5.43882L0.40824 5.73396L0.906759 6.15558L0.58952 6.40856L1.31464 7.25181L4.71363 6.28207C6.37536 5.0453 7.19112 4.41286 7.1609 4.38475C7.13069 4.35664 5.07619 2.90906 0.997399 0.0419922Z" fill="#8E5A30"/>
<path fill-rule="evenodd" clip-rule="evenodd" d="M15.7262 7.20971L16.9951 10.6249L13.8227 10.4562H11.7833V8.98054L11.874 5.94482L12.3272 6.28213L15.7262 7.20971Z" fill="#F89D35"/>
<path fill-rule="evenodd" clip-rule="evenodd" d="M13.3242 7.58887L9.60799 7.67319L10.0159 9.44402L11.7833 9.0224L13.3242 7.58887Z" fill="#D87C30"/>
<path fill-rule="evenodd" clip-rule="evenodd" d="M13.3242 7.63135L11.7833 8.98055V10.3298L13.3242 7.63135Z" fill="#EA8D3A"/>
<path fill-rule="evenodd" clip-rule="evenodd" d="M11.7837 9.02246L9.9709 9.44409L9.38174 11.2571L9.78962 11.4679L11.7837 10.3717V9.02246Z" fill="#F89D35"/>
<path fill-rule="evenodd" clip-rule="evenodd" d="M11.7834 10.3716L12.146 12.9857L9.78936 11.4678L11.7834 10.3716Z" fill="#EB8F35"/>
<path fill-rule="evenodd" clip-rule="evenodd" d="M9.60784 7.67334L9.38124 11.2572L10.061 9.42309L9.60784 7.67334Z" fill="#EA8E3A"/>
<path fill-rule="evenodd" clip-rule="evenodd" d="M13.8682 10.4137L11.7834 10.3716L12.146 12.9857L13.8682 10.4137Z" fill="#D87C30"/>
<path fill-rule="evenodd" clip-rule="evenodd" d="M15.9981 14.1244L12.1459 12.986L13.868 10.4141L16.9951 10.6249L15.9981 14.1244Z" fill="#EB8F35"/>
<path fill-rule="evenodd" clip-rule="evenodd" d="M9.87991 4.38477L11.8287 5.90262L13.3242 7.58913L9.60799 7.71562L9.87991 4.38477Z" fill="#E8821E"/>
<path fill-rule="evenodd" clip-rule="evenodd" d="M10.605 8.43262L10.1064 9.40236L11.8739 8.98073L10.605 8.43262Z" fill="#393939"/>
<path fill-rule="evenodd" clip-rule="evenodd" d="M16.0435 0.0419922L9.87995 4.38475L10.9223 2.02364L16.0435 0.0419922Z" fill="#E88F35"/>
<path fill-rule="evenodd" clip-rule="evenodd" d="M16.0426 0.0419922L16.8584 2.36094L16.4052 4.8907L16.7224 5.05935L16.2692 5.43882L16.6318 5.73396L16.1333 6.15558L16.4505 6.40856L15.7254 7.25181L12.3264 6.28207C10.6647 5.0453 9.84892 4.41286 9.87913 4.38475C9.90935 4.35664 11.9638 2.90906 16.0426 0.0419922Z" fill="#8E5A30"/>
</g>
<defs>
<clipPath id="clip0_99760_11431">
<rect width="17" height="14.1667" fill="white"/>
</clipPath>
</defs>
</svg>
