<?xml version="1.0" standalone="no"?><!DOCTYPE svg PUBLIC "-//W3C//DTD SVG 1.1//EN" "http://www.w3.org/Graphics/SVG/1.1/DTD/svg11.dtd"><svg t="1634193590259" class="icon" viewBox="0 0 1025 1024" version="1.1" xmlns="http://www.w3.org/2000/svg" p-id="4571" xmlns:xlink="http://www.w3.org/1999/xlink" width="200.1953125" height="200"><defs><style type="text/css"></style></defs><path d="M341.184 240.576l0 670.272q0 14.272-7.136 24.288t-20.864 10.016q-9.728 0-18.848-4.576l-265.728-133.152q-12-5.728-20.288-19.136t-8.288-26.56l0-651.424q0-11.424 5.728-19.424t16.576-8q8 0 25.152 8.576l292 146.272q1.728 1.728 1.728 2.848zM377.76 298.272l305.152 494.848-305.152-152 0-342.848zM1024.032 308.576l0 602.272q0 14.272-8 23.136t-21.728 8.864-26.848-7.424l-252-125.728zM1022.304 240q0 1.728-146.56 239.712t-171.712 278.56l-222.848-362.272 185.152-301.152q9.728-16 29.728-16 8 0 14.848 3.424l309.152 154.272q2.272 1.152 2.272 3.424z" p-id="4572"></path></svg>