<?xml version="1.0" standalone="no"?><!DOCTYPE svg PUBLIC "-//W3C//DTD SVG 1.1//EN" "http://www.w3.org/Graphics/SVG/1.1/DTD/svg11.dtd"><svg t="1634370779958" class="icon" viewBox="0 0 1024 1024" version="1.1" xmlns="http://www.w3.org/2000/svg" p-id="10816" xmlns:xlink="http://www.w3.org/1999/xlink" width="200" height="200"><defs><style type="text/css"></style></defs><path d="M800.398062 1.337457a104.675497 104.675497 0 0 0-55.551969 15.92888L456.846253 219.876002c-8.504884 5.119997-18.119101 7.793773-27.903985 7.793774H252.046367C191.914844 227.271554 142.791316 278.130192 142.222428 341.419046v341.162477c0.568889 63.288854 49.692417 114.175937 109.823939 113.720826h176.895901c9.784883 0 19.3991 2.702221 27.903985 7.822218l287.99984 203.974997a105.073719 105.073719 0 0 0 109.482606 1.024c34.047981-20.195544 55.352858-57.941301 55.893302-99.10039V114.005839a117.845268 117.845268 0 0 0-32.483538-80.952844A106.29683 106.29683 0 0 0 800.398062 0.000569v1.336888z" p-id="10817"></path></svg>