<?xml version="1.0" standalone="no"?><!DOCTYPE svg PUBLIC "-//W3C//DTD SVG 1.1//EN" "http://www.w3.org/Graphics/SVG/1.1/DTD/svg11.dtd"><svg t="1634371842166" class="icon" viewBox="0 0 1024 1024" version="1.1" xmlns="http://www.w3.org/2000/svg" p-id="12488" xmlns:xlink="http://www.w3.org/1999/xlink" width="200" height="200"><defs><style type="text/css"></style></defs><path d="M405.333333 840.533333l34.133334-34.133333c29.866667 8.533333 59.733333 12.8 93.866666 12.8 174.933333 0 320-145.066667 320-320 0-34.133333-4.266667-64-12.8-93.866667l34.133334-34.133333c17.066667 38.4 21.333333 81.066667 21.333333 128 0 200.533333-162.133333 362.666667-362.666667 362.666667-46.933333 0-89.6-4.266667-128-21.333334z m-213.333333-209.066666c-17.066667-38.4-21.333333-81.066667-21.333333-128 0-200.533333 162.133333-362.666667 362.666666-362.666667 46.933333 0 89.6 8.533333 128 21.333333l-34.133333 34.133334c-29.866667-8.533333-59.733333-12.8-93.866667-12.8C358.4 179.2 213.333333 324.266667 213.333333 499.2c0 34.133333 4.266667 64 12.8 93.866667l-34.133333 38.4z" fill="#444444" p-id="12489"></path></svg>