<?xml version="1.0" standalone="no"?><!DOCTYPE svg PUBLIC "-//W3C//DTD SVG 1.1//EN" "http://www.w3.org/Graphics/SVG/1.1/DTD/svg11.dtd"><svg t="1634193941863" class="icon" viewBox="0 0 1024 1024" version="1.1" xmlns="http://www.w3.org/2000/svg" p-id="12144" xmlns:xlink="http://www.w3.org/1999/xlink" width="200" height="200"><defs><style type="text/css"></style></defs><path d="M512 192c-17.6 0-32-14.4-32-32V96c0-17.6 14.4-32 32-32s32 14.4 32 32v64c0 17.6-14.4 32-32 32zM512 960c-17.6 0-32-14.4-32-32v-64c0-17.6 14.4-32 32-32s32 14.4 32 32v64c0 17.6-14.4 32-32 32zM512 320c51.285 0 99.5 19.972 135.765 56.235C684.029 412.5 704 460.715 704 512s-19.971 99.5-56.235 135.765C611.5 684.029 563.285 704 512 704s-99.5-19.971-135.765-56.235C339.972 611.5 320 563.285 320 512s19.972-99.5 56.235-135.765C412.5 339.972 460.715 320 512 320m0-64c-141.385 0-256 114.615-256 256s114.615 256 256 256 256-114.615 256-256-114.615-256-256-256zM285.726 285.726c-12.445 12.445-32.81 12.445-45.255 0l-45.255-45.255c-12.445-12.445-12.445-32.81 0-45.255s32.81-12.445 45.255 0l45.255 45.255c12.445 12.445 12.445 32.81 0 45.255zM828.784 828.784c-12.445 12.445-32.81 12.445-45.255 0l-45.255-45.255c-12.445-12.445-12.445-32.81 0-45.255s32.81-12.445 45.255 0l45.255 45.255c12.445 12.445 12.445 32.81 0 45.255zM738.274 285.726c-12.445-12.445-12.445-32.81 0-45.255l45.255-45.255c12.445-12.445 32.81-12.445 45.255 0s12.445 32.81 0 45.255l-45.255 45.255c-12.445 12.445-32.81 12.445-45.255 0zM195.216 828.784c-12.445-12.445-12.445-32.81 0-45.255l45.255-45.255c12.445-12.445 32.81-12.445 45.255 0s12.445 32.81 0 45.255l-45.255 45.255c-12.445 12.445-32.81 12.445-45.255 0zM160 544H96c-17.6 0-32-14.4-32-32s14.4-32 32-32h64c17.6 0 32 14.4 32 32s-14.4 32-32 32zM928 544h-64c-17.6 0-32-14.4-32-32s14.4-32 32-32h64c17.6 0 32 14.4 32 32s-14.4 32-32 32z" p-id="12145"></path></svg>