<?xml version="1.0" standalone="no"?><!DOCTYPE svg PUBLIC "-//W3C//DTD SVG 1.1//EN" "http://www.w3.org/Graphics/SVG/1.1/DTD/svg11.dtd"><svg t="1634354510644" class="icon" viewBox="0 0 1025 1024" version="1.1" xmlns="http://www.w3.org/2000/svg" p-id="2435" xmlns:xlink="http://www.w3.org/1999/xlink" width="200.1953125" height="200"><defs><style type="text/css"></style></defs><path d="M512.653762 1023.998047A511.791377 511.791377 0 0 1 313.345574 40.47724a512.105864 512.105864 0 0 1 398.616376 943.45886 508.786731 508.786731 0 0 1-199.308188 40.061947z m0-943.45886C274.285175 80.539187 80.986279 273.838083 80.986279 512.20667s193.298896 431.667483 431.667483 431.667482 431.667483-194.300445 431.667482-431.667482S750.0208 80.539187 512.653762 80.539187z" fill="" p-id="2436"></path><path d="M834.150889 873.765744a40.061947 40.061947 0 0 1-28.043363-12.018584L162.111722 218.752905a40.36742 40.36742 0 0 1 57.088275-57.088275l643.995804 643.995804a40.061947 40.061947 0 0 1-28.043363 68.10531z" fill="" p-id="2437"></path></svg>