<svg id="图层_1" data-name="图层 1" xmlns="http://www.w3.org/2000/svg" viewBox="0 0 1489.87 371.83"><defs><style>.cls-1{fill:#fff;}.cls-2,.cls-3{font-size:55px;font-family:GenJyuuGothic-P-Heavy, Gen Jyuu Gothic P;font-weight:800;}.cls-2{fill:none;stroke:#2e2e2e;stroke-width:0.75px;}.cls-3{fill:#374151;}.cls-4{fill:#fcfcfc;}</style></defs><rect class="cls-1" width="206.81" height="127.53"/><text class="cls-2" transform="translate(121.37 353.63)">Treat your Huskies, and they will treat you more.</text><text class="cls-3" transform="translate(117.92 351.63)">Treat your Huskies, and they will treat you more.</text><path class="cls-1" d="M331.41,432.63c-3.28.26-5.28,2-5.21,3.31.06,1.09,1.45,1.88,1.9,2.12a17.62,17.62,0,0,0,8.23.44s2.65-1.37,3.45,6.13c.12.8,2.1,4.37,3.54-.89l1.21-5.52s.32-4.54,4.37-1.41,6.16.67,6.16.67a2.79,2.79,0,0,0,1.42-2.72,2.47,2.47,0,0,0-1.1-1.33,5.11,5.11,0,0,0-2.46-.9,19.6,19.6,0,0,0-4.72-.25C345.57,432.58,339.88,432.67,331.41,432.63Z" transform="translate(-206.21 -121.7)"/><path class="cls-1" d="M363.94,443.83a10.88,10.88,0,0,0,.09,6.23c.39,1.16,1,2.83,2.44,3.42a3.77,3.77,0,0,0,3.31-.45c2.79-2.1,3-3.18,5.84-5.08,3.31-2.25,5.94-1.42,6.89-3.64a2.66,2.66,0,0,0-.1-2.58c-.87-1.11-3-.61-3.24-.55a8.09,8.09,0,0,0-4.32,3.32c-1.16,1.59-1.54,3-2.47,3a1.52,1.52,0,0,1-1-.49c-1.3-1.15-.5-2.77-1.62-4a3.54,3.54,0,0,0-2.44-1A4.35,4.35,0,0,0,363.94,443.83Z" transform="translate(-206.21 -121.7)"/><path class="cls-1" d="M597,443.83a10.88,10.88,0,0,0,.09,6.23c.39,1.16,1,2.83,2.44,3.42a3.76,3.76,0,0,0,3.31-.45c2.79-2.1,3-3.18,5.84-5.08,3.32-2.25,5.94-1.42,6.89-3.64a2.69,2.69,0,0,0-.09-2.58c-.88-1.11-3-.61-3.25-.55a8.13,8.13,0,0,0-4.32,3.32c-1.16,1.59-1.54,3-2.47,3a1.47,1.47,0,0,1-1-.49c-1.31-1.15-.51-2.77-1.63-4a3.54,3.54,0,0,0-2.44-1A4.37,4.37,0,0,0,597,443.83Z" transform="translate(-206.21 -121.7)"/><path class="cls-1" d="M741.61,431.86a10.76,10.76,0,0,0,.09,6.22c.5,1.5,1.7,1.55,2.44,3.43a6.1,6.1,0,0,1,.25,4.12,5.71,5.71,0,0,1-.78,1.44c-1.82,2.71-1.06,6.08-1.14,6.08a8.09,8.09,0,0,1,0-2.69c.22,0,1,2.69,1.07,5.68,0,1.56-.11,2.47.13,2.53s1.16-1.56,1.53-3.25a11.7,11.7,0,0,0,.19-3.26c0-3,1.79-4.61,3.07-7.08A16.89,16.89,0,0,0,750,435.5a8.76,8.76,0,0,0-2.54-4.51,4.45,4.45,0,0,0-2.33-1H745A4.35,4.35,0,0,0,741.61,431.86Z" transform="translate(-206.21 -121.7)"/><path class="cls-1" d="M975.17,432.2c-.71,2.86-.23,4.07.38,4.64,1.07,1,2.73.22,3.48,1.4a4.6,4.6,0,0,1,.16,3.07,4.38,4.38,0,0,1-.49,1.07,8.33,8.33,0,0,0-.7,4.52,7.44,7.44,0,0,1,0-2,12,12,0,0,1,.66,4.23c0,1.16-.06,1.84.09,1.88s.71-1.16.94-2.42a11.08,11.08,0,0,0,.12-2.42c0-2.2,1.1-3.44,1.89-5.27a14.78,14.78,0,0,0,.94-7.13,4.38,4.38,0,0,0-1.21-3.08,2.06,2.06,0,0,0-.35-.27,5.6,5.6,0,0,0-4.08-.52l-.72.58Z" transform="translate(-206.21 -121.7)"/><path class="cls-1" d="M1036.58,431.82c.76,2.4.24,3.43-.41,3.91-1.14.84-2.91.18-3.72,1.18a3.08,3.08,0,0,0-.16,2.58,3.35,3.35,0,0,0,.51.9,5.78,5.78,0,0,1,.76,3.82,5,5,0,0,0,0-1.69,8.47,8.47,0,0,0-.7,3.57c0,1,.07,1.55-.09,1.59s-.77-1-1-2.05a7.15,7.15,0,0,1-.13-2c0-1.85-1.18-2.89-2-4.44a10.1,10.1,0,0,1-1-6,3.39,3.39,0,0,1,1.3-2.6,3,3,0,0,1,.37-.23,7.53,7.53,0,0,1,4.37-.43l.76.48Z" transform="translate(-206.21 -121.7)"/><path class="cls-1" d="M1168.45,446.3c-.67,2.44-1.65,3-2.47,3.07-1.41.09-2.54-1.43-3.75-1-1,.34-1.49,1.83-1.55,2.08a3.54,3.54,0,0,0,0,1,5.7,5.7,0,0,1-1.44,3.61s1-1.32.92-1.41a8.46,8.46,0,0,0-2.53,2.61c-.55.81-.78,1.34-.93,1.29s-.11-1.24.26-2.27a6.69,6.69,0,0,1,1-1.78c1-1.55.58-3.07.71-4.83a10.12,10.12,0,0,1,2.41-5.59,3.38,3.38,0,0,1,2.5-1.48,2.73,2.73,0,0,1,.44,0,7.46,7.46,0,0,1,3.9,2c.13.27.25.55.38.82Z" transform="translate(-206.21 -121.7)"/><path class="cls-1" d="M1213.14,431.38c.42,1.91.23,2.74,0,3.14-.46.69-1.26.2-1.58,1a4.6,4.6,0,0,0,0,2.07,4.29,4.29,0,0,0,.26.71,8,8,0,0,1,.47,3,7.56,7.56,0,0,0-.06-1.34,11.37,11.37,0,0,0-.18,2.86,5.57,5.57,0,0,1,0,1.27,3.72,3.72,0,0,1-.52-1.61,12.44,12.44,0,0,1-.13-1.63,10.2,10.2,0,0,0-1-3.51,14.19,14.19,0,0,1-.65-4.78,3.73,3.73,0,0,1,.47-2.1c.07-.1.13-.16.16-.2a1.93,1.93,0,0,1,1.88-.43l.36.37Z" transform="translate(-206.21 -121.7)"/><path class="cls-1" d="M1288.38,443.89c.23,2.09-.12,2.93-.5,3.31-.66.67-1.54,0-2,.83a4.19,4.19,0,0,0-.28,2.2,3.72,3.72,0,0,0,.21.79,7.55,7.55,0,0,1,.12,3.28,6.89,6.89,0,0,0,.12-1.44,11,11,0,0,0-.63,3c-.09.83-.07,1.32-.16,1.35a3.68,3.68,0,0,1-.38-1.79,9,9,0,0,1,.08-1.74c.15-1.57-.41-2.51-.74-3.87a13.32,13.32,0,0,1-.09-5.15,3.65,3.65,0,0,1,.87-2.15,1.57,1.57,0,0,1,.22-.18,2.56,2.56,0,0,1,2.32-.17l.37.44Z" transform="translate(-206.21 -121.7)"/><path class="cls-1" d="M1413.08,445.39c.35,2.09,1,2.75,1.6,2.94,1,.35,1.89-.66,2.74-.1a3.23,3.23,0,0,1,1,2,3.16,3.16,0,0,1,0,.85,6,6,0,0,0,.83,3.19,5.4,5.4,0,0,1-.58-1.32,8.72,8.72,0,0,1,1.67,2.6c.35.75.48,1.23.6,1.21s.14-1-.07-1.87a7.35,7.35,0,0,0-.62-1.63c-.65-1.45-.25-2.59-.25-4a10.42,10.42,0,0,0-1.42-5,3.12,3.12,0,0,0-1.71-1.67,1.75,1.75,0,0,0-.31-.08,4.23,4.23,0,0,0-2.89.86c-.11.2-.21.4-.32.59Z" transform="translate(-206.21 -121.7)"/><path class="cls-1" d="M1624.34,443.82c.33,2.08-.06,2.93-.51,3.31-.77.66-1.86,0-2.44.83a3.36,3.36,0,0,0-.26,2.19,3.31,3.31,0,0,0,.27.8,6.39,6.39,0,0,1,.25,3.28,5.76,5.76,0,0,0,.1-1.44,9.38,9.38,0,0,0-.66,3c-.08.83,0,1.33-.16,1.35s-.43-.87-.52-1.78a7.55,7.55,0,0,1,0-1.75c.13-1.58-.58-2.51-1-3.87a11.1,11.1,0,0,1-.28-5.16,3.31,3.31,0,0,1,1-2.15,2.33,2.33,0,0,1,.25-.19,3.67,3.67,0,0,1,2.81-.16l.46.45Z" transform="translate(-206.21 -121.7)"/><path class="cls-1" d="M1230.27,432.34c-.87,3.38-.5,4.87,0,5.59.93,1.25,2.54.4,3.16,1.86a6.92,6.92,0,0,1-.07,3.69,5.63,5.63,0,0,1-.53,1.25,12.76,12.76,0,0,0-1,5.39,11.42,11.42,0,0,1,.14-2.4,18.16,18.16,0,0,1,.32,5.1c0,1.39-.19,2.2,0,2.27s.75-1.36,1-2.86a15.58,15.58,0,0,0,.28-2.89c.14-2.64,1.28-4.06,2.15-6.22a22.24,22.24,0,0,0,1.39-8.49,6.1,6.1,0,0,0-.93-3.76c-.08-.11-.17-.21-.17-.21a3.28,3.28,0,0,0-1.21-.9,4,4,0,0,0-3.57.51l-.55.8Z" transform="translate(-206.21 -121.7)"/><path class="cls-1" d="M1162.44,445.52c.42,2.09,1.12,2.73,1.7,2.91,1,.32,1.87-.72,2.74-.18a3.37,3.37,0,0,1,1.06,2,3.47,3.47,0,0,1,0,.85,5.94,5.94,0,0,0,.94,3.19,5.65,5.65,0,0,1-.63-1.31,8.44,8.44,0,0,1,1.75,2.56c.38.75.53,1.22.64,1.2s.12-1-.12-1.88a7.22,7.22,0,0,0-.68-1.62c-.7-1.43-.33-2.59-.38-4.05a10.64,10.64,0,0,0-1.59-5,3.2,3.2,0,0,0-1.76-1.63l-.32-.07a4.16,4.16,0,0,0-2.87.95c-.09.2-.19.4-.29.6Z" transform="translate(-206.21 -121.7)"/><path class="cls-1" d="M641.21,450.44a3.19,3.19,0,0,0,.39,2.68c2.49,2.92,12.09-4.85,17.23-1.53,4.16,2.69,3.06,11.13,4,11.11.59,0,.82-3.15,1.34-6.71,1.67-11.5,4.48-15.59,2.15-20.7-.4-.87-1.33-2.86-2.91-3-1.86-.22-3.44,2.17-3.64,2.49a10.2,10.2,0,0,0-.34,9.76c.8,1.54,1.94,2.68,1.49,3.45s-1.53.59-2.11.58c-1.79,0-2.28-.84-3.64-1.15-2.54-.59-3.23,1.6-6.7,1.53-1.86,0-2.25-.68-3.83-.38A6.63,6.63,0,0,0,641.21,450.44Z" transform="translate(-206.21 -121.7)"/><path class="cls-1" d="M887.47,445.41a3.19,3.19,0,0,0,.38,2.68c2.5,2.91,12.1-4.85,17.23-1.53,4.16,2.68,3.06,11.13,4,11.1s2.38-4.25,1.34-6.7c-.32-.75-.57-1.53-1-2.24a1.94,1.94,0,0,1-.31-1c0-.26.07-.33.05-.57a1.6,1.6,0,0,0-.43-.87c-.33-.35-.5-.23-1-.62a3.43,3.43,0,0,1-.69-.76c-.28-.39-.3-.56-.46-.79a2.47,2.47,0,0,0-1.46-.89,12.7,12.7,0,0,0-3.75-.87c-3.6,0-4.36,1.58-6.71,1.54-1.85,0-2.24-.68-3.83-.39A6.72,6.72,0,0,0,887.47,445.41Z" transform="translate(-206.21 -121.7)"/><path class="cls-4" d="M395.91,443.07c.63-.32,7.7-3.82,12.26-.46.86.64,2.21,1.95,1.9,2.65-.53,1.17-5-1.24-11.51-.27-2.95.44-5.2,1.1-5.42.57S394.55,443.94,395.91,443.07Z" transform="translate(-206.21 -121.7)"/><path class="cls-4" d="M532.54,443.07c.63-.32,7.7-3.82,12.26-.46.86.64,2.21,1.95,1.89,2.65-.53,1.17-5-1.24-11.5-.27-3,.44-5.2,1.1-5.42.57S531.18,443.94,532.54,443.07Z" transform="translate(-206.21 -121.7)"/><path class="cls-4" d="M718.86,443.62c.63-.32,7.7-3.82,12.26-.45.86.64,2.21,1.95,1.89,2.64-.53,1.17-5-1.23-11.5-.26-3,.44-5.2,1.09-5.43.57S717.5,444.5,718.86,443.62Z" transform="translate(-206.21 -121.7)"/><path class="cls-4" d="M802.69,443.62c.45-.32,5.47-3.82,8.71-.45.62.64,1.58,1.95,1.35,2.64-.37,1.17-3.54-1.23-8.18-.26-2.09.44-3.69,1.09-3.85.57S801.72,444.5,802.69,443.62Z" transform="translate(-206.21 -121.7)"/><path class="cls-4" d="M1042.59,443.62c.53-.32,6.43-3.82,10.23-.45.72.64,1.85,1.95,1.59,2.64-.45,1.17-4.17-1.23-9.61-.26-2.46.44-4.34,1.09-4.53.57S1041.45,444.5,1042.59,443.62Z" transform="translate(-206.21 -121.7)"/><path class="cls-4" d="M1073.87,443.62c.52-.32,6.42-3.82,10.23-.45.72.64,1.85,1.95,1.58,2.64-.44,1.17-4.16-1.23-9.6-.26-2.46.44-4.34,1.09-4.53.57S1072.73,444.5,1073.87,443.62Z" transform="translate(-206.21 -121.7)"/><path class="cls-4" d="M1317.7,443.62c.52-.32,6.42-3.82,10.23-.45.72.64,1.85,1.95,1.58,2.64-.44,1.17-4.16-1.23-9.6-.26-2.46.44-4.34,1.09-4.53.57S1316.56,444.5,1317.7,443.62Z" transform="translate(-206.21 -121.7)"/><path class="cls-4" d="M1351.4,443.62c.52-.32,6.42-3.82,10.23-.45.72.64,1.85,1.95,1.59,2.64-.45,1.17-4.17-1.23-9.61-.26-2.46.44-4.34,1.09-4.53.57S1350.26,444.5,1351.4,443.62Z" transform="translate(-206.21 -121.7)"/><path class="cls-4" d="M1451.35,443.62c.72-.32,8.85-3.82,14.09-.45,1,.64,2.55,1.95,2.19,2.64-.61,1.17-5.74-1.23-13.24-.26-3.39.44-6,1.09-6.24.57S1449.78,444.5,1451.35,443.62Z" transform="translate(-206.21 -121.7)"/><path class="cls-4" d="M1539.91,443.75c.74-.42,9.08-5,14.46-.59,1,.83,2.61,2.54,2.23,3.45-.62,1.53-5.88-1.62-13.57-.35-3.48.58-6.13,1.43-6.4.74S1538.3,444.89,1539.91,443.75Z" transform="translate(-206.21 -121.7)"/><path class="cls-4" d="M1591.53,443.62c.61-.32,7.46-3.82,11.88-.45.84.64,2.15,1.95,1.84,2.64-.51,1.17-4.84-1.23-11.15-.26-2.86.44-5,1.09-5.26.57S1590.21,444.5,1591.53,443.62Z" transform="translate(-206.21 -121.7)"/><path class="cls-4" d="M1652,443.62c.61-.32,7.46-3.82,11.88-.45.84.64,2.15,1.95,1.84,2.64-.51,1.17-4.83-1.23-11.15-.26-2.86.44-5,1.09-5.26.57S1650.72,444.5,1652,443.62Z" transform="translate(-206.21 -121.7)"/><path class="cls-4" d="M1018.44,444.27c-.66.2-8.09,2.46-12.89.29-.9-.41-2.32-1.26-2-1.7.56-.76,5.25.79,12.1.17,3.1-.29,5.47-.71,5.7-.37S1019.88,443.71,1018.44,444.27Z" transform="translate(-206.21 -121.7)"/><path class="cls-4" d="M832.37,443.62c.58-.32,7.06-3.82,11.24-.45.79.64,2,1.95,1.74,2.64-.49,1.17-4.58-1.23-10.55-.26-2.7.44-4.77,1.09-5,.57S831.13,444.5,832.37,443.62Z" transform="translate(-206.21 -121.7)"/><path class="cls-1" d="M424.64,444A2.49,2.49,0,0,0,423,445a2.43,2.43,0,0,0-.18,2.39,2.79,2.79,0,0,0,1.91,1.37c1.33.28,2-.5,4.6-1.63,2.28-1,3.42-1.5,4.88-1.34a7.35,7.35,0,0,1,3.54,1.53,4.74,4.74,0,0,1,1.63,1.72c.56,1.13.07,1.63.48,2.78s1.57,2.54,2.87,2.49c1.15,0,1.91-1.17,2.45-2a5.55,5.55,0,0,0,.92-3.68l0-.07c-.59-3.74-5.11-5.73-5.84-6.05-3.91-1.72-7.68-.94-9.95-.47A21.89,21.89,0,0,0,424.64,444Z" transform="translate(-206.21 -121.7)"/><path class="cls-1" d="M454.32,443.42s7.47-2,12.73-1.23a16.35,16.35,0,0,1,4.51.9,1.67,1.67,0,0,1,.85.55,1.55,1.55,0,0,1,.2,1.44,1.89,1.89,0,0,1-.77.86c-1.5.9-4.41-1.49-8.12-1.57a16.87,16.87,0,0,0-5.86,1.28c-2.26.8-3.6,1.66-4.59,1C452.68,446.27,452.23,445.37,454.32,443.42Z" transform="translate(-206.21 -121.7)"/><path class="cls-1" d="M460.54,434.07a2.47,2.47,0,0,0-2.3,1.34c-.67,1.43-.09,1.72,1.15,1.91s4.31,1,5.17,0,2-1.72,0-2.49A9,9,0,0,0,460.54,434.07Z" transform="translate(-206.21 -121.7)"/><path class="cls-1" d="M492.33,443.46s4.6-1.17,6,1,1.72,6,1.72,6,1.63,3.73-3.25.67-5-3.66-5.27-4.22S490.49,443.74,492.33,443.46Z" transform="translate(-206.21 -121.7)"/><path class="cls-1" d="M517.61,442.68s-3.45-.36-5,.78-1,2.59-.48,2.3.54,0,2.47,0,2.32-1.08,3-1.31S519.43,442.73,517.61,442.68Z" transform="translate(-206.21 -121.7)"/><path class="cls-1" d="M559.88,447.8s.21-4.21,2.12-5a10.19,10.19,0,0,1,4.78-.32s3.11-.68-.26,2.95-3.83,3.59-4.31,3.73S559.66,449.45,559.88,447.8Z" transform="translate(-206.21 -121.7)"/><path class="cls-1" d="M683,442.49s-3.45-.37-5,.77-1,2.59-.48,2.3.54,0,2.47,0,2.32-1.07,3-1.31S684.78,442.53,683,442.49Z" transform="translate(-206.21 -121.7)"/><path class="cls-1" d="M764.91,442.49s-3.44-.37-5,.77-1,2.59-.48,2.3.54,0,2.47,0,2.31-1.07,3-1.31S766.74,442.53,764.91,442.49Z" transform="translate(-206.21 -121.7)"/><path class="cls-1" d="M782,428.48s-3.45-.37-5,.77-1,2.59-.48,2.3.54,0,2.47,0,2.32-1.07,3-1.31S783.78,428.52,782,428.48Z" transform="translate(-206.21 -121.7)"/><path class="cls-1" d="M864.52,465.12s-2.25-2.67-4.45-2.49-3.1,2.06-2.47,2.07.4.37,1.85,1.64,2.72.42,3.44.62S865.84,466.37,864.52,465.12Z" transform="translate(-206.21 -121.7)"/><path class="cls-1" d="M926.93,444.32s-1.74-2-3.38-1.95-2.25,1.44-1.78,1.46.3.28,1.42,1.26,2,.38,2.58.54S927.94,445.28,926.93,444.32Z" transform="translate(-206.21 -121.7)"/><path class="cls-1" d="M1014.14,436.15s-1.74-2-3.37-1.95-2.26,1.44-1.79,1.46.31.28,1.42,1.26,2,.38,2.58.54S1015.16,437.11,1014.14,436.15Z" transform="translate(-206.21 -121.7)"/><path class="cls-1" d="M1123.16,444.32s-1.74-2-3.37-1.95-2.26,1.44-1.79,1.46.31.28,1.42,1.26,2,.38,2.58.54S1124.18,445.28,1123.16,444.32Z" transform="translate(-206.21 -121.7)"/><path class="cls-1" d="M1201.12,429.58s-1.87-2.35-3.93-2-3,2.22-2.47,2.17.34.32,1.59,1.41,2.5.17,3.15.3S1202.25,430.66,1201.12,429.58Z" transform="translate(-206.21 -121.7)"/><path class="cls-1" d="M1178.3,445.59s1.61,2.4,4.06,1.5,4-3.39,3.36-3.21-.32-.3-1.5-1.32-2.84.37-3.56.36S1177.25,444.54,1178.3,445.59Z" transform="translate(-206.21 -121.7)"/><path class="cls-1" d="M1262.1,437.86s1.54,2.34,4,1.42,4-3.42,3.34-3.22-.3-.29-1.45-1.29-2.79.42-3.5.42S1261.08,436.85,1262.1,437.86Z" transform="translate(-206.21 -121.7)"/><path class="cls-1" d="M1378.27,436.58s1.54,2.35,4,1.42,4-3.41,3.34-3.22-.3-.29-1.45-1.28-2.79.41-3.5.42S1377.25,435.57,1378.27,436.58Z" transform="translate(-206.21 -121.7)"/><path class="cls-1" d="M1432.21,445.92a2.73,2.73,0,0,0,3.57,1c2.33-1.09,4-3.59,3.38-3.35s-.26-.25-1.25-1.1-2.63.63-3.29.69S1431.35,445,1432.21,445.92Z" transform="translate(-206.21 -121.7)"/><path class="cls-1" d="M1499.39,444.78a2.72,2.72,0,0,0,3,2.11c2.56-.28,5-2.11,4.28-2.09s-.17-.32-.83-1.44-2.7-.25-3.34-.4S1498.86,443.67,1499.39,444.78Z" transform="translate(-206.21 -121.7)"/><path class="cls-1" d="M1480.88,444.62a1.87,1.87,0,0,0,2.17,1.45c1.84-.22,3.59-1.54,3.1-1.51s-.12-.23-.58-1-1.94-.15-2.4-.25S1480.51,443.85,1480.88,444.62Z" transform="translate(-206.21 -121.7)"/><path class="cls-1" d="M1531.56,443.7a2.39,2.39,0,0,0,1.53,3c2.23.9,5.05.53,4.47.25s0-.33,0-1.49-2.1-1.38-2.56-1.78S1531.63,442.6,1531.56,443.7Z" transform="translate(-206.21 -121.7)"/><path class="cls-1" d="M1680.79,462.72a2.39,2.39,0,0,0,1.53,3c2.23.9,5,.53,4.47.25s0-.33,0-1.49-2.1-1.38-2.55-1.78S1680.87,461.62,1680.79,462.72Z" transform="translate(-206.21 -121.7)"/><path class="cls-1" d="M1301.56,441.25s2.51,1-.83,4.48-8.5,6.53-7.67,5.59-.22-.27-.9-1.33,2.81-3.73,3.36-4.64S1300.74,440.37,1301.56,441.25Z" transform="translate(-206.21 -121.7)"/></svg>