<svg width="120" height="102" viewBox="0 0 120 102" fill="none" xmlns="http://www.w3.org/2000/svg">
<path d="M60.0686 102C88.1094 102 110.841 79.1665 110.841 51C110.841 22.8335 88.1094 0 60.0686 0C32.0279 0 9.29633 22.8335 9.29633 51C9.29633 79.1665 32.0279 102 60.0686 102Z" fill="#EAEEF9"/>
<path d="M11.1011 21.1255C12.4425 20.6875 13.1765 19.2402 12.7405 17.8928C12.3045 16.5454 10.8637 15.8082 9.5223 16.2461C8.18092 16.684 7.44694 18.1313 7.88293 19.4788C8.31891 20.8262 9.75976 21.5634 11.1011 21.1255Z" fill="#EAEEF9"/>
<path d="M16.6761 12.7553C17.5883 12.4575 18.0874 11.4734 17.7909 10.5571C17.4944 9.64089 16.5147 9.13955 15.6025 9.43735C14.6904 9.73515 14.1913 10.7193 14.4877 11.6356C14.7842 12.5518 15.764 13.0531 16.6761 12.7553Z" fill="#EAEEF9"/>
<path d="M117.134 38.2164C118.717 36.7636 118.828 34.2971 117.381 32.7073C115.935 31.1175 113.479 31.0065 111.897 32.4593C110.314 33.9121 110.204 36.3786 111.65 37.9684C113.096 39.5582 115.552 39.6692 117.134 38.2164Z" fill="#EAEEF9"/>
<path d="M117.497 20.8106C118.163 20.1989 118.21 19.1603 117.601 18.491C116.992 17.8216 115.958 17.7748 115.291 18.3865C114.625 18.9983 114.578 20.0368 115.187 20.7062C115.796 21.3755 116.83 21.4223 117.497 20.8106Z" fill="#EAEEF9"/>
<path d="M6.53809 71.5231C7.66649 71.5231 8.58124 70.6042 8.58124 69.4708C8.58124 68.3373 7.66649 67.4185 6.53809 67.4185C5.40968 67.4185 4.49493 68.3373 4.49493 69.4708C4.49493 70.6042 5.40968 71.5231 6.53809 71.5231Z" fill="#7B3FE4"/>
<path d="M99.3993 5.54127C100.302 5.54127 101.034 4.80619 101.034 3.89942C101.034 2.99265 100.302 2.25757 99.3993 2.25757C98.4966 2.25757 97.7648 2.99265 97.7648 3.89942C97.7648 4.80619 98.4966 5.54127 99.3993 5.54127Z" fill="#7B3FE4"/>
<path d="M1.32805 40.6358C2.06151 40.6358 2.6561 40.0385 2.6561 39.3018C2.6561 38.565 2.06151 37.9678 1.32805 37.9678C0.594587 37.9678 0 38.565 0 39.3018C0 40.0385 0.594587 40.6358 1.32805 40.6358Z" fill="#7B3FE4"/>
<path d="M104.711 79.7323H15.4258V22.9858C15.4258 21.1388 16.856 19.7021 18.6948 19.7021H101.442C103.281 19.7021 104.711 21.1388 104.711 22.9858V79.7323Z" fill="#1C3754"/>
<path d="M82.4411 82.7082H18.184V22.9858H101.545V82.7082H91.7375" fill="white"/>
<path d="M109.819 79.7324V82.2978C109.819 84.658 107.776 85.2737 105.324 85.2737H14.8128C12.361 85.2737 10.3179 84.7606 10.3179 82.2978V79.7324H51.2831C51.5895 80.656 52.6111 81.3743 53.7348 81.3743H66.4024C67.5261 81.3743 68.4455 80.656 68.8542 79.7324H109.819Z" fill="#1C3754"/>
<path d="M109.819 79.7324C109.819 82.0926 107.776 82.6057 105.324 82.6057H14.8128C12.361 82.6057 10.3179 82.0926 10.3179 79.7324H51.2831C51.5895 80.656 52.6111 81.3743 53.7348 81.3743H66.4024C67.5261 81.3743 68.4455 80.656 68.8542 79.7324H109.819Z" fill="#2D5887"/>
<g filter="url(#filter0_d_108_582)">
<path d="M85.4966 18.1742C84.192 18.1742 81.061 16.9948 80.0173 16.6016C74.5381 14.1118 65.5365 6.77344 60.5791 6.77344C55.6217 6.77344 46.6201 13.9808 41.1409 16.6016C40.2277 16.9948 36.9663 18.1742 35.6617 18.1742C33.5744 18.3052 32.0089 20.1398 32.2698 22.1054C32.7916 26.954 34.0962 35.6029 37.4881 46.7415C41.9237 60.501 54.1867 68.7567 58.8832 71.5086C60.0573 72.1638 61.3619 72.1638 62.536 71.5086C67.2325 68.7567 79.4955 60.501 83.6701 46.7415C87.062 35.6029 88.3666 26.954 88.8885 22.1054C89.1494 20.1398 87.5839 18.3052 85.4966 18.1742Z" fill="url(#paint0_linear_108_582)"/>
</g>
<path d="M83.8008 23.0227C83.279 26.954 82.2353 33.6371 79.8871 42.0239C79.6261 43.0722 79.2348 44.2516 78.8434 45.2999C75.321 56.7007 65.4062 63.908 60.5793 66.791C60.0575 66.5289 59.5356 66.1357 59.0138 65.7426C53.926 62.3355 45.5767 55.5213 42.4457 45.2999C39.4452 35.4717 38.1406 27.4781 37.4883 23.0227C39.8365 22.4985 42.7066 21.4502 43.2284 21.1881C45.4462 20.1397 47.9249 18.6983 50.5341 16.9947C53.4041 15.1601 58.7529 11.884 60.5793 11.884C62.4057 11.884 67.7545 15.2911 70.6246 16.9947C73.2337 18.5672 75.7124 20.1397 77.9302 21.1881C78.5825 21.3191 81.4525 22.4985 83.8008 23.0227Z" fill="url(#paint1_linear_108_582)"/>
<g clip-path="url(#clip0_108_582)">
<path d="M60.8287 34.7002C57.1733 32.5898 52.5137 33.8435 50.4068 37.4926L50.1051 38.0152C48.7969 40.281 49.5762 43.1888 51.842 44.497L56.8394 47.3822C59.1052 48.6904 62.0131 47.9114 63.3212 45.6456L63.623 45.1229C65.73 41.4734 64.4859 36.8117 60.8287 34.7002Z" fill="url(#paint2_linear_108_582)"/>
<path d="M72.1436 38.1845C70.3369 37.1414 68.0187 37.7627 66.9757 39.5693C65.9327 41.3758 66.5539 43.6941 68.3605 44.7371C70.167 45.7801 72.4853 45.1589 73.5283 43.3524C74.5713 41.5459 73.9501 39.2275 72.1436 38.1845Z" fill="url(#paint3_linear_108_582)"/>
<path d="M65.6069 35.7879C67.4136 36.831 69.7317 36.2097 70.7747 34.4032C71.8177 32.5967 71.1965 30.2783 69.39 29.2353C67.5835 28.1923 65.2651 28.8135 64.2221 30.62C63.179 32.4268 63.8003 34.7449 65.6069 35.7879Z" fill="url(#paint4_linear_108_582)"/>
<path d="M57.4983 31.1063C59.3048 32.1493 61.6231 31.5281 62.6661 29.7215C63.7091 27.915 63.088 25.5967 61.2814 24.5537C59.4749 23.5107 57.1566 24.1319 56.1136 25.9384C55.0706 27.7449 55.6916 30.0632 57.4983 31.1063Z" fill="url(#paint5_linear_108_582)"/>
<path d="M52.1552 26.6438C50.3486 25.6008 48.0303 26.222 46.9873 28.0285C45.9443 29.835 46.5655 32.1534 48.372 33.1964C50.1786 34.2394 52.4969 33.6182 53.5399 31.8116C54.5829 30.0051 53.9619 27.6869 52.1552 26.6438Z" fill="url(#paint6_linear_108_582)"/>
</g>
<defs>
<filter id="filter0_d_108_582" x="22.0251" y="2.94236" width="77.108" height="85.659" filterUnits="userSpaceOnUse" color-interpolation-filters="sRGB">
<feFlood flood-opacity="0" result="BackgroundImageFix"/>
<feColorMatrix in="SourceAlpha" type="matrix" values="0 0 0 0 0 0 0 0 0 0 0 0 0 0 0 0 0 0 127 0" result="hardAlpha"/>
<feOffset dy="6.38513"/>
<feGaussianBlur stdDeviation="5.1081"/>
<feColorMatrix type="matrix" values="0 0 0 0 0.66275 0 0 0 0 0.1125 0 0 0 0 1 0 0 0 0.22 0"/>
<feBlend mode="normal" in2="BackgroundImageFix" result="effect1_dropShadow_108_582"/>
<feBlend mode="normal" in="SourceGraphic" in2="effect1_dropShadow_108_582" result="shape"/>
</filter>
<linearGradient id="paint0_linear_108_582" x1="57.4801" y1="26.9801" x2="75.9648" y2="52.7981" gradientUnits="userSpaceOnUse">
<stop stop-color="#A981FF"/>
<stop offset="1" stop-color="#7B40E4"/>
</linearGradient>
<linearGradient id="paint1_linear_108_582" x1="73.5" y1="60.4993" x2="54.1952" y2="20.1231" gradientUnits="userSpaceOnUse">
<stop stop-color="#A981FF"/>
<stop offset="1" stop-color="#7B40E4"/>
</linearGradient>
<linearGradient id="paint2_linear_108_582" x1="59.2427" y1="43.1687" x2="57.3755" y2="36.3917" gradientUnits="userSpaceOnUse">
<stop offset="0.0113208" stop-color="#C2D1FF"/>
<stop offset="1" stop-color="white"/>
</linearGradient>
<linearGradient id="paint3_linear_108_582" x1="71.0024" y1="42.9969" x2="69.7184" y2="39.473" gradientUnits="userSpaceOnUse">
<stop offset="0.0113208" stop-color="#C2D1FF"/>
<stop offset="1" stop-color="white"/>
</linearGradient>
<linearGradient id="paint4_linear_108_582" x1="68.2488" y1="34.0477" x2="66.9648" y2="30.5238" gradientUnits="userSpaceOnUse">
<stop offset="0.0113208" stop-color="#C2D1FF"/>
<stop offset="1" stop-color="white"/>
</linearGradient>
<linearGradient id="paint5_linear_108_582" x1="60.1403" y1="29.366" x2="58.8562" y2="25.8422" gradientUnits="userSpaceOnUse">
<stop offset="0.0113208" stop-color="#C2D1FF"/>
<stop offset="1" stop-color="white"/>
</linearGradient>
<linearGradient id="paint6_linear_108_582" x1="51.014" y1="31.4561" x2="49.73" y2="27.9323" gradientUnits="userSpaceOnUse">
<stop offset="0.0113208" stop-color="#C2D1FF"/>
<stop offset="1" stop-color="white"/>
</linearGradient>
<clipPath id="clip0_108_582">
<rect width="30.6486" height="30.6486" fill="white" transform="translate(44.5144 21.1101)"/>
</clipPath>
</defs>
</svg>
